PathFileType	3	(X/Y/Z)	F:\ViconData\AntennenMessung\Messung1\Session1\ID04.trc
DataRate	CameraRate	NumFrames	NumMarkers	Units	OrigDataRate	OrigDataStartFrame	OrigNumFrames
120.0	120.0	4	70	mm	120.0	578	1154	
Frame#	Time	Ashort			Along			Atop			A4			Bshort			Blong			Btop			B4			Cshort			Clong			Ctop			C4			Dshort			Dlong			Dtop			D4			Eshort			Elong			Etop			E4			Fshort			Flong			Ftop			F4			Gshort			Glong			Gtop			G4			Hshort			Hlong			Htop			H4			I1			I2			I3			I4			I5			WandAshort			WandAlong			WandAtop			WandA4			WandA15			WandBshort			WandB4			WandB5			WandBtop			WandBlong			WandCshort			WandClong			WandCtop			WandC4			WandC5			Acenter			Aantenna			Bcenter			Bantenna			Ccenter			Cantenna			Dcenter			Dantenna			Ecenter			Eantenna			Fcenter			Fantenna			Gcenter			Gantenna			Hcenter			Hantenna			Icenter			Iantenna			
		X1	Y1	Z1	X2	Y2	Z2	X3	Y3	Z3	X4	Y4	Z4	X5	Y5	Z5	X6	Y6	Z6	X7	Y7	Z7	X8	Y8	Z8	X9	Y9	Z9	X10	Y10	Z10	X11	Y11	Z11	X12	Y12	Z12	X13	Y13	Z13	X14	Y14	Z14	X15	Y15	Z15	X16	Y16	Z16	X17	Y17	Z17	X18	Y18	Z18	X19	Y19	Z19	X20	Y20	Z20	X21	Y21	Z21	X22	Y22	Z22	X23	Y23	Z23	X24	Y24	Z24	X25	Y25	Z25	X26	Y26	Z26	X27	Y27	Z27	X28	Y28	Z28	X29	Y29	Z29	X30	Y30	Z30	X31	Y31	Z31	X32	Y32	Z32	X33	Y33	Z33	X34	Y34	Z34	X35	Y35	Z35	X36	Y36	Z36	X37	Y37	Z37	X38	Y38	Z38	X39	Y39	Z39	X40	Y40	Z40	X41	Y41	Z41	X42	Y42	Z42	X43	Y43	Z43	X44	Y44	Z44	X45	Y45	Z45	X46	Y46	Z46	X47	Y47	Z47	X48	Y48	Z48	X49	Y49	Z49	X50	Y50	Z50	X51	Y51	Z51	X52	Y52	Z52	X53	Y53	Z53	X54	Y54	Z54	X55	Y55	Z55	X56	Y56	Z56	X57	Y57	Z57	X58	Y58	Z58	X59	Y59	Z59	X60	Y60	Z60	X61	Y61	Z61	X62	Y62	Z62	X63	Y63	Z63	X64	Y64	Z64	X65	Y65	Z65	X66	Y66	Z66	X67	Y67	Z67	X68	Y68	Z68	X69	Y69	Z69	X70	Y70	Z70	
578	4.8083333	-1038.2861	214.44717	-1644.2264	-1109.3014	203.35214	-1599.5343	-1063.6553	172.64062	-1625.5972	-1054.0288	262.00552	-1635.017	-1352.9435	235.47696	1003.7944	-1281.3392	227.13339	1052.1921	-1323.1691	194.15503	1020.7686	-1284.6438	287.87692	1052.7618	813.82806	187.70415	1209.4774	892.76233	178.95689	1178.7401	844.18274	145.59135	1198.1685	860.47815	292.60977	1167.1591	1115.796	209.74692	-1401.7216	1056.2255	193.98123	-1460.1433	1095.0044	162.40497	-1423.946	1069.8624	238.59042	-1425.9509	-1204.4553	1685.9465	-1563.3402	-1129.1436	1688.2372	-1606.1063	-1173.1189	1724.3921	-1581.9847	-1133.5465	1581.0424	-1603.5226	-1239.7545	1699.2808	1119.2915	-1309.4845	1698.8311	1071.666	-1270.3639	1736.1367	1096.6554	-1244.5852	1594.5054	1106.6472	988.82104	1664.2589	1162.2432	957.34167	1700.3213	1183.6285	922.07568	1662.1962	1214.7864	939.7644	1659.3192	1159.9073	999.17896	1668.5442	-1579.5337	1058.876	1670.1554	-1518.6492	1025.0568	1708.0079	-1551.1632	1059.2876	1672.2058	-1585.6765	-287.22034	140.09203	479.79581	-371.82837	147.71704	481.04437	-327.61768	105.85677	481.03436	-324.01086	145.08372	512.34326	-324.69495	141.3773	434.30154																																														-1068.9977	209.64897	-1624.8986	-1074.5687	248.24211	-1624.1703	-1321.6176	231.82675	1024.9677	-1320.0227	270.55426	1029.2844	847.70093	183.95044	1196.2871	851.25873	222.7412	1194.3846	1088.6696	202.56775	-1428.3248	1082.6282	240.87	-1432.5009	-1171.8926	1686.9369	-1581.8311	-1170.6162	1647.9581	-1581.6711	-1271.0067	1699.0791	1097.9462	-1271.6826	1660.1086	1099.3038	952.74255	1705.5898	1186.7529	972.65021	1733.7593	1168.5548	1026.5577	1669.2831	-1551.6101	1028.0684	1630.3148	-1552.0601	-324.24185	143.42847	480.34213	-320.75235	182.26544	479.62659
579	4.8166667	-1038.2788	214.44064	-1644.2238	-1109.286	203.37607	-1599.549	-1063.7299	172.61525	-1625.5452	-1054.1664	262.0632	-1634.9691	-1353.0957	235.02138	1003.869	-1281.3156	227.18681	1052.2053	-1323.0992	194.13727	1020.8179	-1284.7177	287.82953	1052.8071	813.81561	187.6945	1209.5177	892.37537	178.34604	1179.2139	844.28119	145.38989	1198.2776	860.46295	292.55377	1167.1429	1115.7994	209.72685	-1401.735	1056.2461	193.99504	-1460.1365	1095.0382	162.26965	-1423.8894	1069.8306	238.61192	-1425.9816	-1204.446	1685.9393	-1563.3311	-1129.1667	1688.2177	-1606.0573	-1173.1122	1724.3835	-1581.9812	-1133.5437	1581.048	-1603.5066	-1239.7651	1699.2847	1119.2872	-1309.4551	1698.7792	1071.6412	-1270.3507	1736.1293	1096.647	-1244.6637	1594.3547	1106.5806	988.83728	1664.2781	1162.2665	957.39392	1700.4227	1183.6497	922.66187	1661.8955	1214.7565	939.80005	1659.3099	1159.8651	999.18939	1668.5491	-1579.5386	1058.7369	1669.9956	-1518.6797	1025.045	1708.0068	-1551.1615	1059.2891	1672.1071	-1585.4655	-287.27744	140.1725	479.94553	-371.55109	147.28117	481.20956	-327.60892	105.90941	481.05234	-324.04181	145.03438	512.32861	-324.75488	141.36797	434.31171																																														-1069.0651	209.6434	-1624.8542	-1074.626	248.23819	-1624.1342	-1321.7916	231.60464	1024.9489	-1320.4396	270.34644	1029.2205	848.06921	183.61836	1196.3046	851.90979	222.37721	1194.3042	1088.7137	202.57184	-1428.2965	1082.7028	240.87746	-1432.4855	-1171.8828	1686.9247	-1581.8129	-1170.6038	1647.9462	-1581.6377	-1270.9731	1699.0582	1097.9507	-1271.6276	1660.0878	1099.3213	953.22766	1705.212	1186.483	973.06787	1733.3289	1168.1306	1026.4817	1669.212	-1551.645	1027.9249	1630.2416	-1552.1309	-324.46237	143.30911	480.50327	-321.19312	182.16766	479.9328
580	4.825	-1038.3256	214.50217	-1644.2366	-1109.3168	203.37341	-1599.5479	-1063.6401	173.05551	-1625.7644	-1054.0394	262.04004	-1635.0156	-1352.9452	235.45619	1003.8572	-1281.4473	227.23537	1052.2897	-1323.1141	194.1882	1020.7739	-1284.7388	287.93546	1052.8149	813.87146	187.65611	1209.4877	892.12891	178.49936	1179.215	844.29535	145.50833	1198.189	860.48541	292.60089	1167.1758	1115.7992	209.72824	-1401.7302	1056.2279	193.96094	-1460.113	1095.0042	162.24538	-1423.9082	1069.877	238.62283	-1425.9534	-1204.458	1685.9513	-1563.3383	-1129.1554	1688.2292	-1606.0801	-1173.1147	1724.3801	-1581.9835	-1133.5555	1581.0537	-1603.5232	-1239.6971	1699.1934	1119.2661	-1309.5908	1699.0393	1071.7491	-1270.3848	1736.1793	1096.6608	-1244.5337	1594.7808	1106.6271	988.85571	1664.2827	1162.2589	957.38458	1700.3851	1183.6002	922.12939	1662.1558	1214.8102	939.76038	1659.3423	1159.8795	999.19861	1668.5499	-1579.5208	1058.8629	1670.1523	-1518.6428	1025.0503	1708.0094	-1551.1584	1059.2852	1672.1494	-1585.5669	-287.19086	140.19983	479.87744	-371.69272	147.50673	481.13321	-327.56519	105.84161	481.10391	-324.01028	145.0056	512.31427	-324.66898	141.36156	434.25604																																														-1068.8989	209.70941	-1624.9906	-1074.4365	248.30566	-1624.1759	-1321.6731	231.86052	1025.0409	-1320.1918	270.58475	1029.427	848.02008	183.66043	1196.2777	851.80493	222.42773	1194.3357	1088.6646	202.54623	-1428.3235	1082.6392	240.84882	-1432.5198	-1171.8911	1686.9364	-1581.8231	-1170.6172	1647.9575	-1581.6562	-1271.1392	1699.124	1097.8903	-1271.9325	1660.1536	1099.1835	952.85822	1705.5774	1186.6694	972.77234	1733.7172	1168.4327	1026.552	1669.2844	-1551.6108	1028.0632	1630.3164	-1552.066	-324.32657	143.41096	480.42929	-320.9776	182.26064	479.73169
581	4.8333333	-1038.2892	214.47523	-1644.2419	-1109.3125	203.37067	-1599.5432	-1063.5485	172.63646	-1625.6202	-1054.0531	262.02084	-1634.9861	-1353.0601	235.02237	1003.827	-1281.3679	227.15782	1052.1683	-1323.1915	194.075	1020.858	-1284.6255	287.89075	1052.7439	813.86395	187.67007	1209.4386	892.3606	178.42842	1179.1912	844.2641	145.43385	1198.2062	860.49713	292.62231	1167.1018	1115.7472	209.45975	-1401.5875	1056.1082	193.82581	-1460.0527	1095.0559	162.43394	-1424.0222	1069.8514	238.5762	-1425.9872	-1204.5216	1686.0109	-1563.1947	-1129.1619	1688.3446	-1606.5844	-1173.1425	1724.3138	-1581.9052	-1133.5552	1581.0574	-1603.5121	-1239.7341	1699.2428	1119.2787	-1309.4843	1698.8374	1071.6763	-1270.3833	1736.1758	1096.6698	-1244.611	1594.4944	1106.7161	988.78107	1664.2108	1162.2507	957.35944	1700.4061	1183.6646	922.07745	1662.0962	1214.7115	939.78937	1659.3307	1159.8685	999.1972	1668.5521	-1579.5404	1058.8817	1670.1542	-1518.6506	1025.0566	1708.0096	-1551.1619	1059.2942	1672.1606	-1585.563	-287.21213	140.17741	479.85324	-371.55801	147.31468	481.22067	-327.64871	105.77553	481.1554	-324.02472	145.07175	512.36072	-324.75623	141.38628	434.32172																																														-1068.9259	209.68515	-1624.9606	-1074.527	248.27472	-1624.2736	-1321.8032	231.59354	1024.9031	-1320.3695	270.34262	1029.0807	848.01984	183.64877	1196.277	851.82959	222.4129	1194.3202	1088.6443	202.35492	-1428.1569	1082.4918	240.66168	-1432.1244	-1171.9967	1687.0179	-1581.9214	-1170.7993	1648.0364	-1581.9384	-1271.0238	1699.0609	1097.9243	-1271.696	1660.0889	1099.2416	952.94922	1705.4862	1186.67	972.95459	1733.6036	1168.4988	1026.5641	1669.2867	-1551.6207	1028.0812	1630.319	-1552.0825	-324.48209	143.33116	480.45743	-321.20584	182.1866	479.73535
